<?xml version="1.0" encoding="UTF-8" standalone="no"?>
<svg width="17px" height="21px" viewBox="0 0 17 21" version="1.1" xmlns="http://www.w3.org/2000/svg" xmlns:xlink="http://www.w3.org/1999/xlink" xmlns:sketch="http://www.bohemiancoding.com/sketch/ns">
    <!-- Generator: Sketch 3.4.2 (15857) - http://www.bohemiancoding.com/sketch -->
    <title>apple</title>
    <desc>Created with Sketch.</desc>
    <defs></defs>
    <g id="Contextual-CTA" stroke="none" stroke-width="1" fill="none" fill-rule="evenodd" sketch:type="MSPage">
        <g id="iPhone-6---Green" sketch:type="MSArtboardGroup" transform="translate(-88.000000, -285.000000)" fill="#FFFFFF">
            <g id="Group" sketch:type="MSLayerGroup" transform="translate(63.000000, 256.000000)">
                <g id="iOS-(Local)" transform="translate(16.000000, 22.000000)" sketch:type="MSShapeGroup">
                    <path d="M18.2997527,8.54081299 C19.0302658,7.68191767 20.2650408,7.04294477 21.2839619,7 C21.4139263,8.19318641 20.9356572,9.387955 20.2286507,10.2488845 C19.5205142,11.1082319 18.3614575,11.7777182 17.2238733,11.6884383 C17.0692721,10.5210187 17.6424717,9.30364764 18.2997527,8.54081299 L18.2997527,8.54081299 Z M24.096392,24.8168792 C23.2508321,26.0568528 22.3763411,27.2893676 20.9957799,27.3151344 C19.6371431,27.3409013 19.2015928,26.5077728 17.6510607,26.5077728 C16.0989465,26.5077728 15.6132186,27.2893676 14.3305262,27.3409013 C12.9976563,27.3910789 11.9839338,26.0017027 11.1318192,24.7671537 C9.39074803,22.2431316 8.06126849,17.6301857 9.84867484,14.5171422 C10.7337891,12.9711306 12.3200331,11.9931201 14.0385018,11.9671272 C15.3476391,11.9429425 16.5842223,12.8524675 17.383447,12.8524675 C18.1844799,12.8524675 19.6855125,11.7605403 21.2631675,11.9207921 C21.9236128,11.9481411 23.7772445,12.1877277 24.9679447,13.9351276 C24.8736922,13.9970585 22.7553851,15.2336417 22.780926,17.8094236 C22.8066928,20.886303 25.4688163,21.9088405 25.4997817,21.922854 C25.475371,21.9951821 25.0739504,23.3829761 24.096392,24.8168792 L24.096392,24.8168792 Z" id="apple"></path>
                </g>
            </g>
        </g>
    </g>
</svg>