<?xml version="1.0" encoding="UTF-8" standalone="no"?>
<svg width="18px" height="16px" viewBox="0 0 18 16" version="1.1" xmlns="http://www.w3.org/2000/svg" xmlns:xlink="http://www.w3.org/1999/xlink">
    <!-- Generator: Sketch 3.7 (28169) - http://www.bohemiancoding.com/sketch -->
    <title>burger</title>
    <desc>Created with Sketch.</desc>
    <defs></defs>
    <g id="Page-1" stroke="none" stroke-width="1" fill="none" fill-rule="evenodd">
        <g id="Iconography" transform="translate(-270.000000, -312.000000)" fill="#FFFFFF">
            <path d="M270,314 C270,312.895431 270.892623,312 271.995089,312 L286.004911,312 C287.106768,312 288,312.88773 288,314 C288,315.104569 287.107377,316 286.004911,316 L271.995089,316 C270.893232,316 270,315.11227 270,314 Z M270,326 C270,324.895431 270.892623,324 271.995089,324 L286.004911,324 C287.106768,324 288,324.88773 288,326 C288,327.104569 287.107377,328 286.004911,328 L271.995089,328 C270.893232,328 270,327.11227 270,326 Z M270,320 C270,318.895431 270.892623,318 271.995089,318 L286.004911,318 C287.106768,318 288,318.88773 288,320 L288,320 C288,321.104569 287.107377,322 286.004911,322 L271.995089,322 C270.893232,322 270,321.11227 270,320 L270,320 Z" id="burger"></path>
        </g>
    </g>
</svg>