<?xml version="1.0" encoding="UTF-8" standalone="no"?>
<svg width="20px" height="22px" viewBox="0 0 20 22" version="1.1" xmlns="http://www.w3.org/2000/svg" xmlns:xlink="http://www.w3.org/1999/xlink">
    <!-- Generator: Sketch 3.8.3 (29802) - http://www.bohemiancoding.com/sketch -->
    <title>calendar-clock-white</title>
    <desc>Created with Sketch.</desc>
    <defs></defs>
    <g id="Page-1" stroke="none" stroke-width="1" fill="none" fill-rule="evenodd">
        <g id="Iconography" transform="translate(-217.000000, -169.000000)" fill="#FFFFFF">
            <path d="M229,181 L230.5,181 L230.5,183.82 L232.94,185.23 L232.19,186.53 L229,184.69 L229,181 L229,181 Z M233,176 L219,176 L219,187 L223.67,187 C223.24,186.09 223,185.07 223,184 C223,180.134007 226.134007,177 230,177 C231.07,177 232.09,177.24 233,177.67 L233,176 L233,176 Z M219,189 C217.89,189 217,188.1 217,187 L217,173 C217,171.89 217.89,171 219,171 L220,171 L220,169 L222,169 L222,171 L230,171 L230,169 L232,169 L232,171 L233,171 C234.104569,171 235,171.895431 235,173 L235,179.1 C236.24,180.36 237,182.09 237,184 C237,187.865993 233.865993,191 230,191 C228.09,191 226.36,190.24 225.1,189 L219,189 L219,189 Z M230,179.15 C227.321419,179.15 225.15,181.321419 225.15,184 C225.15,186.68 227.32,188.85 230,188.85 C231.2863,188.85 232.519916,188.339019 233.429468,187.429468 C234.339019,186.519916 234.85,185.2863 234.85,184 C234.85,181.32 232.68,179.15 230,179.15 L230,179.15 Z" id="calendar-clock-white"></path>
        </g>
    </g>
</svg>