<?xml version="1.0" encoding="UTF-8" standalone="no"?>
<svg width="14px" height="14px" viewBox="0 0 14 14" version="1.1" xmlns="http://www.w3.org/2000/svg" xmlns:xlink="http://www.w3.org/1999/xlink">
    <!-- Generator: Sketch 3.7 (28169) - http://www.bohemiancoding.com/sketch -->
    <title>close</title>
    <desc>Created with Sketch.</desc>
    <defs></defs>
    <g id="Page-1" stroke="none" stroke-width="1" fill="none" fill-rule="evenodd">
        <g id="Iconography" transform="translate(-342.000000, -314.000000)" fill="#FFFFFF">
            <g id="close" transform="translate(342.000000, 314.000000)">
                <path d="M0.636038969,13.363961 C-0.145009614,12.5829124 -0.146994959,11.3185678 0.632566575,10.5390063 L10.5390063,0.632566575 C11.3181371,-0.146564258 12.5774671,-0.150454941 13.363961,0.636038969 L13.363961,0.636038969 C14.1450096,1.41708755 14.146995,2.68143217 13.3674334,3.4609937 L3.4609937,13.3674334 C2.68186287,14.1465643 1.42253288,14.1504549 0.636038969,13.363961 L0.636038969,13.363961 L0.636038969,13.363961 Z" id="Rectangle-64"></path>
                <path d="M0.636038969,0.636038969 C1.41708755,-0.145009614 2.68143217,-0.146994959 3.4609937,0.632566575 L13.3674334,10.5390063 C14.1465643,11.3181371 14.1504549,12.5774671 13.363961,13.363961 L13.363961,13.363961 C12.5829124,14.1450096 11.3185678,14.146995 10.5390063,13.3674334 L0.632566575,3.4609937 C-0.146564258,2.68186287 -0.150454941,1.42253288 0.636038969,0.636038969 L0.636038969,0.636038969 L0.636038969,0.636038969 Z" id="Rectangle-64-Copy-2"></path>
            </g>
        </g>
    </g>
</svg>