<?xml version="1.0" encoding="utf-8"?>
<!-- Generator: Adobe Illustrator 17.1.0, SVG Export Plug-In . SVG Version: 6.00 Build 0)  -->
<!DOCTYPE svg PUBLIC "-//W3C//DTD SVG 1.1//EN" "http://www.w3.org/Graphics/SVG/1.1/DTD/svg11.dtd">
<svg version="1.1" id="Layer_1" xmlns="http://www.w3.org/2000/svg" xmlns:xlink="http://www.w3.org/1999/xlink" x="0px" y="0px"
	 viewBox="0 0 14.8 31.8" enable-background="new 0 0 14.8 31.8" xml:space="preserve">
<path id="facebook" fill="#FFFFFF" d="M14.8,10.3h-5V7c0-1.2,0.8-1.5,1.4-1.5c0.6,0,3.5,0,3.5,0V0L9.8,0C4.4,0,3.1,4.1,3.1,6.7v3.6
	H0v5.6h3.1c0,7.2,0,15.9,0,15.9h6.6c0,0,0-8.8,0-15.9h4.4L14.8,10.3z"/>
<g id="google_x2B_">
	<g>
		<path fill="#FFFFFF" d="M-24.1,18.2c-0.9-0.6-2.5-2.1-2.5-3c0-1,0.3-1.5,1.9-2.8c1.6-1.2,2.7-3,2.7-5c0-2.4-1.1-4.8-3.1-5.6h3.1
			l2.2-1.6h-9.6c-4.3,0-8.4,3.3-8.4,7.1c0,3.9,2.9,7,7.3,7c0.3,0,0.6,0,0.9,0c-0.3,0.5-0.5,1.2-0.5,1.8c0,1.1,0.6,2,1.3,2.7
			c-0.6,0-1.1,0-1.7,0c-5.4,0-9.5,3.4-9.5,7c0,3.5,4.5,5.7,9.9,5.7c6.1,0,9.5-3.5,9.5-7C-20.7,21.7-21.5,20-24.1,18.2z M-29.2,13.4
			c-2.5-0.1-4.8-2.8-5.3-6c-0.4-3.3,1.2-5.8,3.7-5.7c2.5,0.1,4.8,2.7,5.3,6C-25.1,10.9-26.7,13.5-29.2,13.4z M-30.2,29.9
			c-3.7,0-6.4-2.3-6.4-5.2c0-2.8,3.3-5.1,7-5c0.9,0,1.7,0.1,2.4,0.4c2,1.4,3.5,2.2,3.9,3.8c0.1,0.3,0.1,0.7,0.1,1
			C-23.2,27.7-25,29.9-30.2,29.9z"/>
		<polygon fill="#FFFFFF" points="-13.8,13.7 -13.8,9.9 -16.8,9.9 -16.8,13.7 -20.6,13.7 -20.6,16.7 -16.8,16.7 -16.8,20.5 
			-13.8,20.5 -13.8,16.7 -10,16.7 -10,13.7 		"/>
	</g>
</g>
<g>
	<g>
		<path fill="#FFFFFF" d="M72,8c-1.2,0.6-2.4,0.9-3.8,1.1c1.4-0.9,2.4-2.2,2.9-3.9C69.9,6,68.5,6.6,67,6.9c-1.2-1.4-2.9-2.2-4.8-2.2
			c-3.6,0-6.5,3.1-6.5,7c0,0.5,0.1,1.1,0.2,1.6c-5.4-0.3-10.3-3.1-13.5-7.3c-0.6,1-0.9,2.2-0.9,3.5c0,2.4,1.2,4.6,2.9,5.9
			c-1.1,0-2.1-0.3-3-0.9c0,0,0,0.1,0,0.1c0,3.4,2.3,6.2,5.2,6.9c-0.5,0.2-1.1,0.2-1.7,0.2c-0.4,0-0.8,0-1.2-0.1
			c0.8,2.8,3.2,4.8,6.1,4.9c-2.2,1.9-5.1,3-8.1,3c-0.5,0-1.1,0-1.6-0.1c2.9,2,6.3,3.2,10,3.2c12,0,18.6-10.7,18.6-20
			c0-0.3,0-0.6,0-0.9C70.1,10.6,71.2,9.4,72,8z"/>
	</g>
</g>
</svg>
