<?xml version="1.0" encoding="UTF-8" standalone="no"?>
<svg width="24px" height="24px" viewBox="0 0 24 24" version="1.1" xmlns="http://www.w3.org/2000/svg" xmlns:xlink="http://www.w3.org/1999/xlink" xmlns:sketch="http://www.bohemiancoding.com/sketch/ns">
    <!-- Generator: Sketch 3.4 (15588) - http://www.bohemiancoding.com/sketch -->
    <title>football-white</title>
    <desc>Created with Sketch.</desc>
    <defs></defs>
    <g id="Icon-Board" stroke="none" stroke-width="1" fill="none" fill-rule="evenodd" sketch:type="MSPage">
        <g id="football-white" sketch:type="MSLayerGroup" fill="#FFFFFF">
            <path d="M11.0790857,8.22857143 L8.22857143,10.944 L9.15154286,14.7634286 L12.9270857,15.8742857 L15.7769143,13.1657143 L14.856,9.33942857 L11.0790857,8.22857143" id="Fill-502" sketch:type="MSShapeGroup"></path>
            <path d="M21.4208839,16.3004904 L17.5383177,15.1578114 L14.6066415,17.9510267 L15.5554155,21.8798674 L15.6245455,21.9010281 C12.9531649,22.9096892 9.95800206,22.747457 7.39384356,21.4637065 L6.44859668,17.548973 L2.58578184,16.4133475 C1.4352612,13.7964716 1.41974222,10.8128098 2.54557357,8.19593385 L2.54839521,8.210041 L6.43378311,9.35977356 L9.36404843,6.56655826 L8.4145691,2.63066398 L8.39975553,2.63066398 C11.079601,1.62905648 14.0825233,1.79834225 16.6466818,3.10325344 L17.5792313,6.96155841 L21.3877298,8.08307667 C22.5643505,10.7211133 22.5819857,13.740043 21.4385192,16.3710261 L21.4208839,16.3004904 L21.4208839,16.3004904 Z M20.4428616,4.23461617 C16.0051204,-0.424681481 8.62778753,-0.616264444 3.96245022,3.82846029 C-0.702887095,8.2655217 -0.884504202,15.6376341 3.55247067,20.3045951 C7.99097819,24.971556 15.368311,25.1554757 20.0321157,20.7107509 C24.697453,16.2736895 24.8806028,8.90157713 20.4428616,4.23461617 L20.4428616,4.23461617 Z" id="Fill-503" sketch:type="MSShapeGroup"></path>
        </g>
    </g>
</svg>