<?xml version="1.0" encoding="UTF-8" standalone="no"?>
<svg width="25px" height="19px" viewBox="0 0 25 19" version="1.1" xmlns="http://www.w3.org/2000/svg" xmlns:xlink="http://www.w3.org/1999/xlink" xmlns:sketch="http://www.bohemiancoding.com/sketch/ns">
    <!-- Generator: Sketch 3.4 (15588) - http://www.bohemiancoding.com/sketch -->
    <title>formula-1-black</title>
    <desc>Created with Sketch.</desc>
    <defs></defs>
    <g id="Icon-Board" stroke="none" stroke-width="1" fill="none" fill-rule="evenodd" sketch:type="MSPage">
        <path d="M23.4284936,2.9993786 C23.4169818,3.01222904 22.6550578,3.07139461 21.7054638,2.85775605 C21.3362814,2.77422819 20.9561225,2.66740891 20.5754283,2.48857362 C20.2429231,2.33543921 19.9572686,2.12072978 19.683929,1.89424077 C19.5888893,1.82329564 19.48207,1.75261822 19.4105894,1.66909036 C19.0304306,1.28812836 18.6261772,0.991229655 18.186585,0.74144923 C18.0318443,0.646409519 17.877639,0.539590237 17.7113865,0.45686553 C16.6651465,-0.030380315 15.8451278,-0.00735661018 15.8095214,0.00442295971 L15.5241345,0.0159348121 L12.0850356,7.3339926 L10.7576922,4.67555785 L8.57017253,0.0162025296 L8.28532111,0.00469067721 C8.24944697,-0.00708889268 7.42916055,-0.0301125975 6.37194416,0.457133248 C6.21693573,0.539857955 6.06246273,0.646409519 5.90825745,0.741716948 C5.4683976,0.991497373 5.05209689,1.28839608 4.68371762,1.66935808 C4.60072519,1.75288594 4.50541776,1.82356335 4.41037805,1.89450849 C4.13703849,2.12099749 3.85191935,2.33543921 3.50709922,2.48884134 C3.13871994,2.66767662 2.74624609,2.77449591 2.3899141,2.85802376 C1.43871383,3.07166233 0.678396138,3.01249676 0.666348851,2.99964632 L0,2.95306348 L3.73251735,10.893029 C3.73251735,10.893029 4.06502248,10.9289032 4.13650305,10.9289032 C4.42215762,10.9532655 5.18301075,10.9532655 6.07451002,10.738556 C6.44235386,10.6435163 6.82304814,10.5238466 7.20320699,10.3460822 C7.53651527,10.1918769 7.82136669,9.98975018 8.10675354,9.77611162 C8.26122654,9.65670961 8.41543181,9.53703989 8.54607795,9.40692919 C8.87938624,9.07522721 9.22393866,8.81259634 9.59258565,8.59895778 C9.74705865,8.50391807 9.90153164,8.38531922 10.0557369,8.31357093 C10.5909042,8.0637905 11.0661028,7.98160123 11.3517573,7.9443885 L11.5629864,8.42146108 L7.01339528,17.6799353 L8.3203921,18.2871186 L12.0976183,9.62511895 L15.9401675,18.2868509 L17.2474321,17.6681557 L12.6260926,8.41583901 L12.8255421,7.95723894 C13.1227086,7.9933808 13.5510566,8.08842051 14.0262551,8.31357093 C14.1925077,8.38558693 14.3472484,8.50391807 14.5014537,8.59895778 C14.8701007,8.81259634 15.2146531,9.07495949 15.5471582,9.40692919 C15.6778044,9.53703989 15.8325451,9.65670961 15.9875535,9.77611162 C16.2608931,9.98975018 16.5580595,10.1918769 16.8905646,10.3460822 C17.2712589,10.5238466 17.6514178,10.6432486 18.0085529,10.738556 C18.9000522,10.9532655 19.6724171,10.9532655 19.9572686,10.9289032 C20.0169696,10.9289032 20.3620574,10.893029 20.3620574,10.893029 L24.0945748,2.95306348 L23.4284936,2.9993786 L23.4284936,2.9993786 Z M8.64138538,6.57822611 L9.39072666,8.15936565 C9.05768609,8.36122464 8.73669281,8.61100507 8.40391996,8.94270705 C8.24891153,9.11003048 8.08292668,9.22836162 7.9164064,9.35954319 L7.16760056,7.76715952 C6.53739357,8.30232679 5.78858773,8.57593407 5.13508932,8.71782435 L5.88362744,10.3219876 C5.02746688,10.5241143 4.30275562,10.5369647 3.94642363,10.5369647 L3.14996407,8.82464363 L3.20912964,8.82464363 L3.50629606,8.84900592 C3.51780792,8.86051777 4.24332233,8.90817149 5.1348216,8.71782435 L4.31480291,6.97096768 C3.53012292,7.16024395 2.8289708,7.19745668 2.44827651,7.19745668 C2.42444966,7.18460624 2.4006228,7.18460624 2.37679594,7.18460624 L1.48529668,5.28300886 L1.55677725,5.29478843 L1.87777053,5.31915072 C1.88981781,5.31915072 2.60274951,5.37724542 3.47042192,5.18796914 L2.62657637,3.38060832 C2.99522336,3.28556861 3.37591764,3.16696976 3.74456464,2.99991404 C4.06475476,2.84677963 4.3621889,2.64465292 4.64757576,2.40558119 L5.50320088,4.23596572 C4.87968683,4.77354246 4.13329044,5.04982692 3.47524083,5.18689827 L4.3115903,6.96989681 C4.97552969,6.80498283 5.69890237,6.51477706 6.34704643,6.0272635 L5.50534262,4.23516257 C5.57575232,4.17706787 5.64642974,4.11790231 5.70559531,4.05873674 C6.13340787,3.61860917 6.56122043,3.29734818 6.98930071,3.04890634 L6.13314015,1.23003366 C6.28761314,1.1234821 6.45413343,1.03968652 6.60860642,0.968741385 C7.23881341,0.671574963 7.7619334,0.576267534 8.07061168,0.553243829 L8.87911852,2.35926607 C8.41543181,2.4302112 7.73810655,2.60904649 6.98930071,3.04863862 L7.82109897,4.8201253 C8.66494452,4.29646988 9.40197079,4.20116245 9.68762536,4.18857973 L10.4479431,5.91348356 C9.99683907,5.98389326 9.35485251,6.16138997 8.64138538,6.57822611 L8.64138538,6.57822611 Z M16.1781684,9.35927547 C16.0113804,9.22836162 15.8451278,9.10976276 15.6903871,8.94243933 C15.3573465,8.61073735 15.0248414,8.36095692 14.7035804,8.15909793 L15.4502445,6.58250959 C15.8617263,6.82506164 16.2847199,7.13481079 16.7055718,7.56583596 C16.780265,7.63678109 16.8597771,7.6980884 16.9267065,7.76769495 L16.1781684,9.35927547 L16.1781684,9.35927547 Z M21.7169757,7.18407081 C21.6813692,7.18407081 21.6682511,7.18407081 21.6452274,7.19692125 C21.2535567,7.19692125 20.5639164,7.15970851 19.7789687,6.97043224 L18.95895,8.71728891 C19.8504493,8.90763605 20.5751605,8.85998234 20.5872078,8.84847049 L20.884642,8.82410819 L20.9438075,8.82410819 L20.147348,10.5364293 C19.7912837,10.5364293 19.0655016,10.5235789 18.2101442,10.3214522 L18.95895,8.71728891 C18.305987,8.57566636 17.5571812,8.30179136 16.9275096,7.76769495 L17.7448512,6.02646035 C17.5708348,5.89554649 17.4019051,5.75472709 17.2412746,5.59356115 C16.9197458,5.25811113 16.5901856,5.01689766 16.2756175,4.82039302 L15.4510476,6.57688752 C14.7745255,6.17397269 14.1569013,5.9951374 13.7052618,5.92445998 L14.4655795,4.18777657 C14.775061,4.21240658 15.4762131,4.33180859 16.2726726,4.81932215 L17.1044709,3.04783547 C16.3797596,2.61948747 15.7257258,2.44199077 15.2623068,2.36997477 L16.0467191,0.552440677 C16.3562005,0.587243952 16.8790528,0.682283663 17.4846298,0.967938233 C17.6399059,1.03888337 17.805623,1.12241123 17.9608992,1.22923051 L17.1044709,3.04810319 C17.5207716,3.29681274 17.9483165,3.61807374 18.376129,4.05793359 C18.4478773,4.11843774 18.5188224,4.17626472 18.5905707,4.23676888 L19.4464636,2.40504576 C19.731315,2.64411748 20.0290169,2.84597648 20.3379628,2.9993786 C20.7181217,3.16643432 21.0982805,3.28476546 21.4669275,3.38007288 L20.6121056,5.18636284 C19.9543237,5.04929148 19.2087304,4.77193615 18.5860195,4.23435942 L17.7451189,6.02646035 C18.3924598,6.51397391 19.1161002,6.80417968 19.7803073,6.96909366 L20.616389,5.18850458 C21.4931638,5.37644226 22.2050247,5.31834757 22.2050247,5.31834757 L22.5369944,5.29398527 L22.6087427,5.2822057 L21.7169757,7.18407081 Z M7.38605804,7.56610367 C7.80798081,7.13427535 8.23097446,6.82532936 8.6432594,6.58170644 L7.81628005,4.82066074 C7.501712,5.01689766 7.1713486,5.25837885 6.84981989,5.59382887 C6.68972483,5.75526252 6.52079508,5.89581421 6.34731415,6.02672806 L7.16465567,7.76796267 C7.23104961,7.69942699 7.31082942,7.63811968 7.38605804,7.56610367 Z" id="formula-1-black" fill="#000000" sketch:type="MSShapeGroup"></path>
    </g>
</svg>