<?xml version="1.0" encoding="UTF-8" standalone="no"?>
<svg width="366px" height="373px" viewBox="0 0 366 373" version="1.1" xmlns="http://www.w3.org/2000/svg" xmlns:xlink="http://www.w3.org/1999/xlink" xmlns:sketch="http://www.bohemiancoding.com/sketch/ns">
    <!-- Generator: Sketch 3.4.2 (15857) - http://www.bohemiancoding.com/sketch -->
    <title>Shape</title>
    <desc>Created with Sketch.</desc>
    <defs></defs>
    <g id="Page-1" stroke="none" stroke-width="1" fill="none" fill-rule="evenodd" sketch:type="MSPage">
        <g id="1449842301_new-google-favicon" sketch:type="MSLayerGroup" fill="#FFFFFF">
            <g id="Group" sketch:type="MSShapeGroup">
                <path d="M125.9,10.2 C80.6,25.7 42,59.6 20.5,102.5 C13,117.3 7.6,133 4.3,149.3 C-3.9,189.7 1.8,232.8 20.4,269.6 C32.5,293.6 49.9,315 70.9,331.7 C90.8,347.5 113.9,359.3 138.5,365.8 C169.5,374.1 202.5,373.9 233.7,366.8 C261.9,360.3 288.6,346.8 309.9,327.2 C332.4,306.5 348.5,279.3 357,250 C366.3,218.1 367.5,184 361.7,151.2 L186.7,151.2 L186.7,223.8 L288.1,223.8 C284.2,247 270.4,268.2 250.9,281.3 C238.6,289.6 224.5,294.9 209.9,297.5 C195.3,300 180.1,300.3 165.5,297.4 C150.6,294.4 136.5,288.2 124.1,279.5 C104.3,265.6 89.2,245.3 81.5,222.4 C73.6,199.1 73.5,173.2 81.5,150 C87.1,133.6 96.3,118.5 108.5,106.1 C123.5,90.7 143,79.7 164.1,75.2 C182.1,71.4 201.1,72.1 218.7,77.4 C233.7,81.9 247.5,90.2 258.8,101 C270.2,89.6 281.6,78.2 293,66.8 C299,60.7 305.3,54.8 311.1,48.5 C293.8,32.5 273.4,19.6 251.2,11.4 C211.2,-3.4 166.2,-3.7 125.9,10.2 L125.9,10.2 Z" id="Shape"></path>
            </g>
        </g>
    </g>
</svg>