<?xml version="1.0" encoding="UTF-8" standalone="no"?>
<svg width="22px" height="14px" viewBox="0 0 22 14" version="1.1" xmlns="http://www.w3.org/2000/svg" xmlns:xlink="http://www.w3.org/1999/xlink">
    <!-- Generator: Sketch 3.8.3 (29802) - http://www.bohemiancoding.com/sketch -->
    <title>google-plus-black</title>
    <desc>Created with Sketch.</desc>
    <defs></defs>
    <g id="Mood" stroke="none" stroke-width="1" fill="none" fill-rule="evenodd">
        <g id="Iconography" transform="translate(-478.000000, -241.000000)" fill="#000000">
            <path d="M500,247 L498,247 L498,245 L496,245 L496,247 L494,247 L494,249 L496,249 L496,251 L498,251 L498,249 L500,249 L500,247 Z M485,247 L485,249.4 L489,249.4 C488.8,250.4 487.8,252.4 485,252.4 C482.6,252.4 480.7,250.4 480.7,248 C480.7,245.6 482.6,243.6 485,243.6 C486.4,243.6 487.3,244.2 487.8,244.7 L489.7,242.9 C488.5,241.7 486.9,241 485,241 C481.1,241 478,244.1 478,248 C478,251.9 481.1,255 485,255 C489,255 491.7,252.2 491.7,248.2 C491.7,247.7 491.7,247.4 491.6,247 L485,247 L485,247 Z" id="google-plus-black"></path>
        </g>
    </g>
</svg>