<?xml version="1.0" encoding="UTF-8" standalone="no"?>
<svg width="13px" height="20px" viewBox="0 0 13 20" version="1.1" xmlns="http://www.w3.org/2000/svg" xmlns:xlink="http://www.w3.org/1999/xlink" xmlns:sketch="http://www.bohemiancoding.com/sketch/ns">
    <!-- Generator: Sketch 3.4.2 (15857) - http://www.bohemiancoding.com/sketch -->
    <title>google</title>
    <desc>Created with Sketch.</desc>
    <defs></defs>
    <g id="Contextual-CTA" stroke="none" stroke-width="1" fill="none" fill-rule="evenodd" sketch:type="MSPage">
        <g id="iPhone-6---Green" sketch:type="MSArtboardGroup" transform="translate(-150.000000, -286.000000)" fill="#FFFFFF">
            <g id="Group" sketch:type="MSLayerGroup" transform="translate(63.000000, 256.000000)">
                <g id="Google" transform="translate(74.000000, 22.000000)" sketch:type="MSShapeGroup">
                    <path d="M25.8916667,8 L20.61475,8 C19.2317667,8 17.4899833,8.20933333 16.0305167,9.44222222 C14.9276833,10.4142222 14.3912167,11.7515556 14.3912167,12.9595556 C14.3912167,15.0064444 15.92825,17.0808889 18.6433,17.0808889 C18.8994,17.0808889 19.1799833,17.0542222 19.4638167,17.0286667 C19.33555,17.3426667 19.2062,17.6051111 19.2062,18.052 C19.2062,18.866 19.61635,19.3637778 19.9747167,19.8364444 C18.82335,19.9146667 16.6709833,20.0457778 15.08195,21.0426667 C13.5707,21.9631111 13.1087667,23.3004444 13.1087667,24.2457778 C13.1083333,26.188 14.9021167,28 18.6168667,28 C23.023,28 25.3547667,25.5066667 25.3547667,23.0377778 C25.3547667,21.2284444 24.3299333,20.3346667 23.2028333,19.3635556 L22.2802667,18.6291111 C21.9996833,18.3924444 21.6155333,18.0782222 21.6155333,17.5002222 C21.6155333,16.9231111 21.9996833,16.5548889 22.33205,16.2137778 C23.4073667,15.348 24.4839833,14.4293333 24.4839833,12.4871111 C24.4839833,10.4917778 23.2533167,9.44177778 22.66485,8.94333333 L24.2538833,8.94333333 L25.8916667,8 L25.8916667,8 Z M23.6392,24.062 C23.6392,25.6893333 22.33205,26.896 19.87245,26.896 C17.13205,26.896 15.3638333,25.5573333 15.3638333,23.6948889 C15.3638333,21.83 17.0035667,21.202 17.5664667,20.9917778 C18.6430833,20.6237778 20.0260667,20.5715556 20.2561667,20.5715556 C20.5127,20.5715556 20.64075,20.5715556 20.8465833,20.5973333 C22.7939833,22.0144444 23.6392,22.7237778 23.6392,24.062 L23.6392,24.062 Z M21.5893167,15.6108889 C21.1791667,16.03 20.4869167,16.3453333 19.8462333,16.3453333 C17.6440333,16.3453333 16.6454167,13.4313333 16.6454167,11.6735556 C16.6454167,10.9908889 16.7736833,10.2828889 17.2083167,9.73133333 C17.6184667,9.20644444 18.3352,8.86488889 19.0016667,8.86488889 C21.1273833,8.86488889 22.23,11.8046667 22.23,13.6937778 C22.23,14.1671111 22.1777833,15.0062222 21.5893167,15.6108889 L21.5893167,15.6108889 Z" id="google"></path>
                </g>
            </g>
        </g>
    </g>
</svg>