<?xml version="1.0" encoding="UTF-8" standalone="no"?>
<svg width="43px" height="34px" viewBox="0 0 43 34" version="1.1" xmlns="http://www.w3.org/2000/svg" xmlns:xlink="http://www.w3.org/1999/xlink" xmlns:sketch="http://www.bohemiancoding.com/sketch/ns">
    <!-- Generator: Sketch 3.4.2 (15857) - http://www.bohemiancoding.com/sketch -->
    <title>KO</title>
    <desc>Created with Sketch.</desc>
    <defs></defs>
    <g id="Page-1" stroke="none" stroke-width="1" fill="none" fill-rule="evenodd" sketch:type="MSPage">
        <path d="M14.6703348,17.1590558 L20.7168492,28.0010687 L13.0151437,30.2399357 L7.79622483,19.0222251 L13.7076216,6.98418672 L20.7506286,4.93680175 L14.6703348,17.1590558 Z M7.59354837,31.8159803 L0.736328125,33.8093575 L0.736328125,10.7549101 L7.59354837,8.76153291 L7.59354837,31.8159803 Z M39.4953862,2.47722417 C41.8318071,4.1738627 43,6.67734378 43,9.98774252 C43,13.3544406 41.8233623,16.5564477 39.4700516,19.5938601 C37.116741,22.6312724 34.2567795,24.6392939 30.8900815,25.6179848 C27.5459032,26.5901293 24.6915716,26.237609 22.327001,24.5604134 C19.9624305,22.8832178 18.780163,20.3725684 18.780163,17.0283901 C18.780163,13.6504322 19.9708753,10.4443336 22.3523356,7.40999809 C24.7337959,4.37566258 27.6472409,2.35772338 31.092758,1.35611997 C34.3581173,0.406887975 37.1589653,0.780585638 39.4953862,2.47722417 Z M27.2925743,10.8043384 C26.3017067,12.1282883 25.8062803,13.5221332 25.8062803,14.9859149 C25.8062803,16.4496967 26.3045216,17.5546848 27.3010192,18.3009125 C28.2975168,19.0471402 29.4938589,19.2173122 30.8900815,18.8114337 C32.3088238,18.3990088 33.5107958,17.5344676 34.4960335,16.2177842 C35.4812712,14.9011009 35.9738827,13.5052593 35.9738827,12.0302177 C35.9738827,10.5551761 35.4812712,9.44573644 34.4960335,8.70186548 C33.5107958,7.95799453 32.3088238,7.79227401 30.8900815,8.20469894 C29.482599,8.61385066 28.283442,9.48038847 27.2925743,10.8043384 Z" id="KO" fill="#000000" sketch:type="MSShapeGroup"></path>
    </g>
</svg>