<?xml version="1.0" encoding="UTF-8" standalone="no"?>
<svg width="18px" height="17px" viewBox="0 0 18 17" version="1.1" xmlns="http://www.w3.org/2000/svg" xmlns:xlink="http://www.w3.org/1999/xlink">
    <!-- Generator: Sketch 39.1 (31720) - http://www.bohemiancoding.com/sketch -->
    <title>List White</title>
    <desc>Created with Sketch.</desc>
    <defs></defs>
    <g id="Mood" stroke="none" stroke-width="1" fill="none" fill-rule="evenodd">
        <g id="Iconography" transform="translate(-492.000000, -172.000000)" fill="#FFFFFF">
            <path d="M492,188 C492,187.447715 492.444946,187 492.993398,187 L509.006602,187 C509.555241,187 510,187.443865 510,188 C510,188.552285 509.555054,189 509.006602,189 L492.993398,189 C492.444759,189 492,188.556135 492,188 Z M492,185 C492,184.447715 492.444946,184 492.993398,184 L509.006602,184 C509.555241,184 510,184.443865 510,185 C510,185.552285 509.555054,186 509.006602,186 L492.993398,186 C492.444759,186 492,185.556135 492,185 Z M492,182 C492,181.447715 492.444946,181 492.993398,181 L509.006602,181 C509.555241,181 510,181.443865 510,182 C510,182.552285 509.555054,183 509.006602,183 L492.993398,183 C492.444759,183 492,182.556135 492,182 Z M492,179 C492,178.447715 492.444946,178 492.993398,178 L509.006602,178 C509.555241,178 510,178.443865 510,179 C510,179.552285 509.555054,180 509.006602,180 L492.993398,180 C492.444759,180 492,179.556135 492,179 Z M492,176 C492,175.447715 492.444946,175 492.993398,175 L509.006602,175 C509.555241,175 510,175.443865 510,176 C510,176.552285 509.555054,177 509.006602,177 L492.993398,177 C492.444759,177 492,176.556135 492,176 Z M492,173 C492,172.447715 492.444946,172 492.993398,172 L509.006602,172 C509.555241,172 510,172.443865 510,173 C510,173.552285 509.555054,174 509.006602,174 L492.993398,174 C492.444759,174 492,173.556135 492,173 Z" id="List-White"></path>
        </g>
    </g>
</svg>