<?xml version="1.0" encoding="UTF-8" standalone="no"?>
<svg width="25px" height="17px" viewBox="0 0 25 17" version="1.1" xmlns="http://www.w3.org/2000/svg" xmlns:xlink="http://www.w3.org/1999/xlink" xmlns:sketch="http://www.bohemiancoding.com/sketch/ns">
    <!-- Generator: Sketch 3.4 (15588) - http://www.bohemiancoding.com/sketch -->
    <title>mail-white</title>
    <desc>Created with Sketch.</desc>
    <defs></defs>
    <g id="Icon-Board" stroke="none" stroke-width="1" fill="none" fill-rule="evenodd" sketch:type="MSPage">
        <g id="mail-white" sketch:type="MSLayerGroup" fill="#FFFFFF">
            <path d="M23,17 L1,17 C0.4,17 0,16.6 0,16 L0,2 C0,1.4 0.4,1 1,1 L23,1 C23.6,1 24,1.4 24,2 L24,16 C24,16.6 23.6,17 23,17 L23,17 Z M2,15 L22,15 L22,3 L2,3 L2,15 L2,15 Z" id="Shape" sketch:type="MSShapeGroup"></path>
            <path d="M11.9993294,9.99999967 C11.7601875,9.99976231 11.4577546,9.87261188 11.2943406,9.66912585 L0.5,2.8 C0,2.5 -0.1,1.9 0.2,1.5 C0.5,1 1.1,0.9 1.5,1.2 L11.9214286,7.83181818 L22.5,1.1 C23,0.8 23.6,0.9 23.9,1.4 C24.2,1.9 24.1,2.5 23.6,2.8 L12.6391316,9.77509806 C12.4683249,9.90225532 12.2097263,10 12,10 C11.9997764,10 11.9995528,9.99999988 11.9993292,9.99999963 Z" id="Shape" sketch:type="MSShapeGroup"></path>
        </g>
    </g>
</svg>