<?xml version="1.0" encoding="UTF-8" standalone="no"?>
<svg width="18px" height="24px" viewBox="0 0 18 24" version="1.1" xmlns="http://www.w3.org/2000/svg" xmlns:xlink="http://www.w3.org/1999/xlink" xmlns:sketch="http://www.bohemiancoding.com/sketch/ns">
    <!-- Generator: Sketch 3.4 (15588) - http://www.bohemiancoding.com/sketch -->
    <title>pin-white</title>
    <desc>Created with Sketch.</desc>
    <defs></defs>
    <g id="Icon-Board" stroke="none" stroke-width="1" fill="none" fill-rule="evenodd" sketch:type="MSPage">
        <path d="M9,24 C6.2,24 0,15.3 0,9 C0,4 4,0 9,0 C14,0 18,4 18,9 C18,13 15.6,17.2 14.6,18.8 C14,19.7 11.2,24 9,24 L9,24 Z M9,2 C5.1,2 2,5.1 2,9 C2,14.6 7.6,21.7 9,22 C10.4,21.7 16,14.6 16,9 C16,5.1 12.9,2 9,2 Z M9,14 C6.2,14 4,11.8 4,9 C4,6.2 6.2,4 9,4 C11.8,4 14,6.2 14,9 C14,11.8 11.8,14 9,14 Z M9,6 C7.3,6 6,7.3 6,9 C6,10.7 7.3,12 9,12 C10.7,12 12,10.7 12,9 C12,7.3 10.7,6 9,6 L9,6 Z" id="pin-white" fill="#FFFFFF" sketch:type="MSShapeGroup"></path>
    </g>
</svg>