<?xml version="1.0" encoding="UTF-8" standalone="no"?>
<svg width="17px" height="20px" viewBox="0 0 17 20" version="1.1" xmlns="http://www.w3.org/2000/svg" xmlns:xlink="http://www.w3.org/1999/xlink">
    <!-- Generator: Sketch 3.8.3 (29802) - http://www.bohemiancoding.com/sketch -->
    <title>Shape</title>
    <desc>Created with Sketch.</desc>
    <defs></defs>
    <g id="Page-1" stroke="none" stroke-width="1" fill="none" fill-rule="evenodd">
        <g id="Iconography" transform="translate(-201.000000, -309.000000)" fill="#FFFFFF">
            <g id="cursor-pointer" transform="translate(201.000000, 309.000000)">
                <path d="M7,0 C8.1045695,0 9,0.8954305 9,2 L9,6.5 C9,6.5 11,6.25 11,7.25 C11,7.25 13,7 13,8 C13,8 15,7.75 15,8.75 C15,8.75 17,8.5 17,9.5 L17,13 C17,14 14,19 14,20 L6,20 C6,20 4,13 1,11 C1,11 1.67643677e-14,5 5,10 L5,2 C5,0.8954305 5.8954305,0 7,0 L7,0 Z" id="Shape"></path>
            </g>
        </g>
    </g>
</svg>