<?xml version="1.0" encoding="UTF-8" standalone="no"?>
<svg width="20px" height="20px" viewBox="0 0 20 20" version="1.1" xmlns="http://www.w3.org/2000/svg" xmlns:xlink="http://www.w3.org/1999/xlink">
    <!-- Generator: Sketch 3.8.3 (29802) - http://www.bohemiancoding.com/sketch -->
    <title>slack-black</title>
    <desc>Created with Sketch.</desc>
    <defs></defs>
    <g id="Mood" stroke="none" stroke-width="1" fill="none" fill-rule="evenodd">
        <g id="Iconography" transform="translate(-541.000000, -238.000000)" fill="#000000">
            <path d="M549.23,247.16 L551.91,246.27 L552.77,248.84 L550.09,249.73 L549.23,247.16 L549.23,247.16 Z M556.69,249.71 C557.23,249.53 557.5,248.94 557.34,248.4 C557.16,247.86 556.57,247.56 556.03,247.75 L554.73,248.18 L553.87,245.61 L555.17,245.17 C555.71,245 556,244.4 555.82,243.86 C555.64,243.32 555.05,243 554.5,243.21 L553.21,243.64 L552.76,242.3 C552.58,241.76 552,241.46 551.45,241.65 C550.91,241.83 550.62,242.42 550.8,242.96 L551.25,244.3 L548.57,245.19 L548.12,243.85 C547.94,243.31 547.36,243 546.81,243.2 C546.27,243.38 546,243.97 546.16,244.5 L546.61,245.85 L545.31,246.29 C544.77,246.47 544.5,247.06 544.66,247.6 C544.8,248 545.19,248.3 545.61,248.31 L545.97,248.25 L547.27,247.82 L548.13,250.39 L546.83,250.83 C546.29,251 546,251.6 546.18,252.14 C546.32,252.56 546.71,252.84 547.13,252.85 L547.5,252.79 L548.79,252.36 L549.24,253.7 C549.38,254.13 549.77,254.4 550.19,254.41 L550.55,254.35 C551.09,254.17 551.38,253.59 551.2,253.04 L550.75,251.7 L553.43,250.81 L553.88,252.15 C554,252.57 554.41,252.84 554.83,252.85 L555.19,252.8 C555.73,252.62 556,252.03 555.84,251.5 L555.39,250.15 L556.69,249.71 L556.69,249.71 Z M560.17,245.25 C562.23,252.12 560.62,255.1 553.75,257.17 C546.88,259.23 543.9,257.62 541.83,250.75 C539.77,243.88 541.38,240.9 548.25,238.83 C555.12,236.77 558.1,238.38 560.17,245.25 L560.17,245.25 Z" id="slack-black"></path>
        </g>
    </g>
</svg>