<?xml version="1.0" encoding="UTF-8" standalone="no"?>
<svg width="24px" height="24px" viewBox="0 0 24 24" version="1.1" xmlns="http://www.w3.org/2000/svg" xmlns:xlink="http://www.w3.org/1999/xlink" xmlns:sketch="http://www.bohemiancoding.com/sketch/ns">
    <!-- Generator: Sketch 3.4 (15588) - http://www.bohemiancoding.com/sketch -->
    <title>tennis-white</title>
    <desc>Created with Sketch.</desc>
    <defs></defs>
    <g id="Icon-Board" stroke="none" stroke-width="1" fill="none" fill-rule="evenodd" sketch:type="MSPage">
        <path d="M21.1,4.2 C20.3,3.3 19.6,2.7 19.6,2.7 L19.6,2.7 C17.5,1 14.9,0 12,0 C5.4,0 0,5.4 0,12 C0,18.6 5.4,24 12,24 C18.6,24 24,18.6 24,12 C24,9 22.9,6.3 21.1,4.2 L21.1,4.2 Z M10.3,2.2 C10.3,2.3 10.2,2.4 10.2,2.5 C8.2,6.5 6.6,8.9 2.9,8 C4.2,4.9 7,2.7 10.3,2.2 L10.3,2.2 Z M2,12 C2,11.3 2.1,10.5 2.2,9.8 C3,10 3.7,10.1 4.3,10.1 C8.4,10.1 10.3,6.4 11.9,3.3 C12.1,2.9 12.3,2.4 12.6,2 C15.4,2.2 17.8,3.5 19.5,5.4 C20.2,6.2 20.9,7.3 20.9,8.6 C20.9,9.8 20.3,11 19,12.1 C18,13 16.1,13 14.1,13 C11.8,13 9.3,13 7.5,14.4 C6.5,15.2 5.3,16.8 5.4,18.8 C5.4,19 5.4,19.3 5.5,19.6 C3.4,17.8 2,15.1 2,12 L2,12 Z M12,22 C11.1,22 10.2,21.9 9.4,21.6 C8.1,20.8 7.5,19.8 7.4,18.7 C7.3,17.5 8,16.5 8.7,15.9 C9.9,14.9 12,14.9 14,14.9 C16.3,14.9 18.6,14.9 20.3,13.5 C21,12.9 21.5,12.3 21.9,11.7 L21.9,11.8 C22,17.5 17.5,22 12,22 L12,22 Z" id="tennis-white" fill="#FFFFFF" sketch:type="MSShapeGroup"></path>
    </g>
</svg>