<?xml version="1.0" encoding="UTF-8" standalone="no"?>
<svg width="22px" height="17px" viewBox="0 0 22 17" version="1.1" xmlns="http://www.w3.org/2000/svg" xmlns:xlink="http://www.w3.org/1999/xlink">
    <!-- Generator: Sketch 3.8.3 (29802) - http://www.bohemiancoding.com/sketch -->
    <title>twitter-black</title>
    <desc>Created with Sketch.</desc>
    <defs></defs>
    <g id="Mood" stroke="none" stroke-width="1" fill="none" fill-rule="evenodd">
        <g id="Iconography" transform="translate(-406.000000, -241.000000)" fill="#000000">
            <path d="M427.46,243 C426.69,243.35 425.86,243.58 425,243.69 C425.88,243.16 426.56,242.32 426.88,241.31 C426.05,241.81 425.13,242.16 424.16,242.36 C423.37,241.5 422.26,241 421,241 C418.65,241 416.73,242.92 416.73,245.29 C416.73,245.63 416.77,245.96 416.84,246.27 C413.28,246.09 410.11,244.38 408,241.79 C407.63,242.42 407.42,243.16 407.42,243.94 C407.42,245.43 408.17,246.75 409.33,247.5 C408.62,247.5 407.96,247.3 407.38,247 C407.38,247 407.38,247 407.38,247.03 C407.38,249.11 408.86,250.85 410.82,251.24 C410.46,251.34 410.08,251.39 409.69,251.39 C409.42,251.39 409.15,251.36 408.89,251.31 C409.43,253 411,254.26 412.89,254.29 C411.43,255.45 409.58,256.13 407.56,256.13 C407.22,256.13 406.88,256.11 406.54,256.07 C408.44,257.29 410.7,258 413.12,258 C421,258 425.33,251.46 425.33,245.79 C425.33,245.6 425.33,245.42 425.32,245.23 C426.16,244.63 426.88,243.87 427.46,243 L427.46,243 Z" id="twitter-black"></path>
        </g>
    </g>
</svg>