<?xml version="1.0" encoding="UTF-8" standalone="no"?>
<svg width="22px" height="20px" viewBox="0 0 22 20" version="1.1" xmlns="http://www.w3.org/2000/svg" xmlns:xlink="http://www.w3.org/1999/xlink" xmlns:sketch="http://www.bohemiancoding.com/sketch/ns">
    <!-- Generator: Sketch 3.4.2 (15857) - http://www.bohemiancoding.com/sketch -->
    <title>windows-white</title>
    <desc>Created with Sketch.</desc>
    <defs></defs>
    <g id="Contextual-CTA" stroke="none" stroke-width="1" fill="none" fill-rule="evenodd" sketch:type="MSPage">
        <g id="iPhone-6---Green" sketch:type="MSArtboardGroup" transform="translate(-208.000000, -286.000000)" fill="#FFFFFF">
            <g id="Group" sketch:type="MSLayerGroup" transform="translate(63.000000, 256.000000)">
                <g id="MS-Office" transform="translate(138.000000, 22.000000)" sketch:type="MSShapeGroup">
                    <path d="M11.4911778,8.87025 C12.8771778,8.305 14.0930444,8.021 15.2057556,8 C15.7899778,8 16.3414444,8.06425 16.8643111,8.1885 C17.6602222,8.39625 18.7616889,9.00625 19.1814,9.25125 L17.1886889,16.191 C16.1732667,15.52875 14.9478667,14.8855 13.2907778,14.86825 L13.2893111,14.86825 C12.1841778,14.86825 10.9834667,15.1285 9.59208889,15.66275 L11.4911778,8.87025 L11.4911778,8.87025 Z M14.612,25.513 C15.1048,23.80925 16.2881556,19.69425 16.6413778,18.46425 C16.3852,18.30525 16.1241333,18.14575 15.8569556,17.99825 C14.8315111,17.462 13.8351556,17.19025 12.8942889,17.19025 C12.7666889,17.19025 12.6386,17.19425 12.5090444,17.2055 C11.3083333,17.3065 10.2124889,17.62925 9.50653333,17.87975 C9.31928889,17.9495 9.12862222,18.02325 8.93037778,18.105 L7,24.9145 C8.3266,24.415 9.49871111,24.17225 10.5730444,24.17225 C12.3100667,24.17225 13.5699333,24.833 14.612,25.513 L14.612,25.513 Z M26.3639111,20.43825 C25.1042889,20.852 23.896,21.06175 22.7659333,21.06175 C20.7045333,21.06175 19.2613333,20.38175 18.3510222,19.729 L16.4081778,26.599 C16.9845778,26.935 18.9235111,28 20.4087556,28 C21.6075111,28 22.9492667,27.687 24.5085778,27.042 L26.3639111,20.43825 L26.3639111,20.43825 Z M29,11.13575 C27.7362222,11.63525 26.5032444,11.88975 25.3255111,11.88975 C23.3557778,11.88975 21.9032889,11.1945 20.9621778,10.526 L18.9865778,17.485 C20.3134222,18.3535 21.7431778,18.79425 23.2433333,18.79425 C24.4667778,18.79425 25.7339778,18.49525 27.0129111,17.9045 L27.009,17.85625 L27.0891778,17.8365 L29,11.13575 L29,11.13575 Z" id="windows-white"></path>
                </g>
            </g>
        </g>
    </g>
</svg>