<?xml version="1.0" encoding="UTF-8" standalone="no"?>
<svg width="24px" height="24px" viewBox="0 0 24 24" version="1.1" xmlns="http://www.w3.org/2000/svg" xmlns:xlink="http://www.w3.org/1999/xlink" xmlns:sketch="http://www.bohemiancoding.com/sketch/ns">
    <!-- Generator: Sketch 3.4 (15588) - http://www.bohemiancoding.com/sketch -->
    <title>rugby-white</title>
    <desc>Created with Sketch.</desc>
    <defs></defs>
    <g id="Icon-Board" stroke="none" stroke-width="1" fill="none" fill-rule="evenodd" sketch:type="MSPage">
        <g id="Football-ball-Copy" sketch:type="MSLayerGroup" fill="#FFFFFF">
            <g id="Layer_1" sketch:type="MSShapeGroup">
                <path d="M22.9,1.7 L22.7,1.3 L22.3,1.1 C16.3,-1.2 9.4,0.2 4.8,4.8 C0.2,9.4 -1.2,16.3 1.1,22.3 L1.3,22.7 L1.7,22.9 C3.6,23.7 5.7,24 7.7,24 C12,24 16.1,22.3 19.3,19.2 C23.8,14.6 25.2,7.7 22.9,1.7 L22.9,1.7 Z M17.8,17.8 C14.1,21.5 8.8,22.8 3.9,21.5 L6.7,18.7 L5.3,17.3 L2.5,20.1 C1.2,15.2 2.5,9.9 6.2,6.2 C9.9,2.5 15.2,1.2 20.1,2.5 L17.3,5.3 L18.7,6.7 L21.5,3.9 C22.8,8.8 21.5,14.1 17.8,17.8 L17.8,17.8 Z M11.2,8.5 L15.5,12.8 L16.9,11.4 L12.7,7 L11.2,8.5 L11.2,8.5 Z M9.1,10.6 L13.4,14.9 L14.8,13.5 L10.5,9.2 L9.1,10.6 L9.1,10.6 Z M7,12.7 L11.3,17 L12.7,15.6 L8.4,11.3 L7,12.7 L7,12.7 Z" id="rugby-white"></path>
            </g>
        </g>
    </g>
</svg>