<?xml version="1.0" encoding="UTF-8" standalone="no"?>
<svg width="24px" height="18px" viewBox="0 0 24 18" version="1.1" xmlns="http://www.w3.org/2000/svg" xmlns:xlink="http://www.w3.org/1999/xlink" xmlns:sketch="http://www.bohemiancoding.com/sketch/ns">
    <!-- Generator: Sketch 3.4 (15588) - http://www.bohemiancoding.com/sketch -->
    <title>share-white</title>
    <desc>Created with Sketch.</desc>
    <defs></defs>
    <g id="Icon-Board" stroke="none" stroke-width="1" fill="none" fill-rule="evenodd" sketch:type="MSPage">
        <path d="M13,13.0185608 L13,17.0040518 C13,17.4040518 13.2,17.8040518 13.6,17.9040518 C13.7,18.0040518 13.9,18.0040518 14,18.0040518 C14.2,18.0040518 14.5,17.9040518 14.7,17.7040518 L23.7,9.70405184 C23.9,9.60405184 24,9.20405184 24,9.00405184 C24,8.80405184 23.9,8.50405184 23.7,8.30405184 L14.7,0.304051835 C14.4,0.00405183549 14,-0.0959481645 13.6,0.104051835 C13.2,0.204051835 13,0.604051835 13,1.00405184 L13,5.06014522 C9.79636754,5.3400886 0,7.01389982 0,17.0040518 C0,17.5040518 0.3,17.9040518 0.8,18.0040518 L1,18.0040518 C1.4,18.0040518 1.8,17.8040518 1.9,17.4040518 C1.9,17.3074436 3.76662859,13.2909154 13,13.0185608 Z M14.725,11.2790518 C14.9,11.4540518 15,11.7040518 15,12.0040518 L15,14.8040518 L21.5,9.00405184 L15,3.20405184 L15,6.00405184 C15,6.30405184 14.9,6.55405184 14.725,6.72905184 C14.55,6.90405184 14.3,7.00405184 14,7.00405184 C13.6,7.00405184 4.5,7.10405184 2.4,13.9040518 C4.4,12.5040518 7.9,11.0040518 14,11.0040518 C14.3,11.0040518 14.55,11.1040518 14.725,11.2790518 Z" id="share-white" fill="#FFFFFF" sketch:type="MSShapeGroup"></path>
    </g>
</svg>