<?xml version="1.0" encoding="UTF-8" standalone="no"?>
<svg width="24px" height="24px" viewBox="0 0 24 24" version="1.1" xmlns="http://www.w3.org/2000/svg" xmlns:xlink="http://www.w3.org/1999/xlink" xmlns:sketch="http://www.bohemiancoding.com/sketch/ns">
    <!-- Generator: Sketch 3.4 (15588) - http://www.bohemiancoding.com/sketch -->
    <title>table-white</title>
    <desc>Created with Sketch.</desc>
    <defs></defs>
    <g id="Icon-Board" stroke="none" stroke-width="1" fill="none" fill-rule="evenodd" sketch:type="MSPage">
        <g id="table-white" sketch:type="MSLayerGroup" fill="#FFFFFF">
            <path d="M20,24 L4,24 C1.8,24 0,22.2 0,20 L0,5 C0,4.4 0.4,4 1,4 L23,4 C23.6,4 24,4.4 24,5 L24,20 C24,22.2 22.2,24 20,24 L20,24 Z M2,6 L2,20 C2,21.1 2.9,22 4,22 L20,22 C21.1,22 22,21.1 22,20 L22,6 L2,6 L2,6 Z" id="Shape" sketch:type="MSShapeGroup"></path>
            <path d="M7,24 C6.4,24 6,23.6 6,23 L6,5 C6,4.4 6.4,4 7,4 C7.6,4 8,4.4 8,5 L8,23 C8,23.6 7.6,24 7,24 L7,24 Z" id="Shape" sketch:type="MSShapeGroup"></path>
            <path d="M23,12 L1,12 C0.4,12 0,11.6 0,11 C0,10.4 0.4,10 1,10 L23,10 C23.6,10 24,10.4 24,11 C24,11.6 23.6,12 23,12 L23,12 Z" id="Shape" sketch:type="MSShapeGroup"></path>
            <path d="M23,18 L1,18 C0.4,18 0,17.6 0,17 C0,16.4 0.4,16 1,16 L23,16 C23.6,16 24,16.4 24,17 C24,17.6 23.6,18 23,18 L23,18 Z" id="Shape" sketch:type="MSShapeGroup"></path>
            <path d="M23,5 L1,5 L1,4 C1,2.3 2.3,1 4,1 L20,1 C21.7,1 23,2.3 23,4 L23,5 L23,5 Z" id="Shape" sketch:type="MSShapeGroup"></path>
            <path d="M23,6 L1,6 C0.4,6 0,5.6 0,5 L0,4 C0,1.8 1.8,0 4,0 L20,0 C22.2,0 24,1.8 24,4 L24,5 C24,5.6 23.6,6 23,6 L23,6 Z M2,4 L22,4 C22,2.9 21.1,2 20,2 L4,2 C2.9,2 2,2.9 2,4 L2,4 Z" id="Shape" sketch:type="MSShapeGroup"></path>
        </g>
    </g>
</svg>